<mxfile host="app.diagrams.net" modified="2024-06-27T16:13:06.518Z" agent="Mozilla/5.0 (Windows NT 10.0; Win64; x64) AppleWebKit/537.36 (KHTML, like Gecko) Chrome/126.0.0.0 Safari/537.36" version="24.6.3" etag="ttwnYqp8XFzGhQ9K55IH" type="github">
  <diagram name="PÃ¡gina-1" id="FHT60R3ST7Y9LsIktFSq">
    <mxGraphModel>
      <root>
        <mxCell id="0" />
        <mxCell id="1" parent="0" />
      </root>
    </mxGraphModel>
  </diagram>
</mxfile>
